<svg width="32" height="28" viewBox="0 0 32 28" fill="none" xmlns="http://www.w3.org/2000/svg">
  <path d="M20.8452 26.5845H2.34353C1.84592 26.5845 1.36869 26.3868 1.01682 26.0349C0.66496 25.6831 0.467285 25.2058 0.467285 24.7082V22.1678L0.608004 20.7143C0.611756 20.6718 0.616759 20.6299 0.621763 20.5892C0.854417 18.7024 2.26285 17.172 4.10658 16.7185L8.69838 15.8767L12.6472 9.9259L16.6424 15.8361L17.099 15.9249L21.1879 16.7185C23.0323 17.1726 24.4401 18.7024 24.6734 20.588C24.679 20.6299 24.6834 20.6718 24.6877 20.7131L24.8285 22.1665C25.058 24.5344 23.2099 26.5845 20.8452 26.5845Z" fill="#66C1FF"/>
  <path d="M9.15918 15.1838L12.6484 9.9259L16.1782 15.1475L12.6484 18.2808L9.15918 15.1838Z" fill="#FFCD85"/>
  <path d="M12.6485 9.9259L12.1838 10.6264L14.7118 14.3657C14.8581 14.5819 14.9208 14.8439 14.8883 15.103C14.8557 15.362 14.7301 15.6003 14.5348 15.7735L12.1794 17.8643L12.6485 18.2808L16.1771 15.1475L12.6485 9.9259Z" fill="#FFC166"/>
  <path d="M20.1021 26.5845V22.7539C20.1021 22.6294 20.1515 22.5101 20.2394 22.4222C20.3274 22.3342 20.4467 22.2848 20.5711 22.2848C20.6955 22.2848 20.8148 22.3342 20.9028 22.4222C20.9908 22.5101 21.0402 22.6294 21.0402 22.7539V26.5845H20.1021Z" fill="#FF4E4E"/>
  <path d="M15.4196 20.5692L18.0789 17.267C18.1116 17.2265 18.1308 17.1769 18.1339 17.125C18.1371 17.0731 18.1239 17.0215 18.0964 16.9774L16.8293 14.9592C16.81 14.9289 16.7843 14.903 16.7541 14.8835C16.7239 14.8639 16.6898 14.8511 16.6542 14.846C16.6186 14.8408 16.5822 14.8434 16.5477 14.8535C16.5132 14.8637 16.4812 14.8812 16.4541 14.9048L12.6509 18.2821L15.0538 20.5961C15.079 20.6196 15.1088 20.6376 15.1412 20.649C15.1737 20.6604 15.2082 20.665 15.2426 20.6625C15.2769 20.66 15.3104 20.6504 15.3408 20.6343C15.3713 20.6183 15.3981 20.5961 15.4196 20.5692ZM9.83781 20.516L7.25109 17.3045C7.20974 17.2532 7.18566 17.1901 7.18229 17.1243C7.17892 17.0585 7.19644 16.9933 7.23233 16.938L8.45939 15.0455C8.48399 15.0079 8.51643 14.976 8.55448 14.952C8.59254 14.928 8.63531 14.9125 8.6799 14.9066C8.72448 14.9007 8.76982 14.9044 8.81283 14.9176C8.85583 14.9308 8.89548 14.9531 8.92908 14.983L12.6522 18.2833L10.2981 20.5454C10.2668 20.5755 10.2296 20.5987 10.1889 20.6136C10.1482 20.6285 10.1048 20.6348 10.0615 20.6321C10.0182 20.6293 9.97595 20.6175 9.93745 20.5976C9.89894 20.5776 9.865 20.5498 9.83781 20.516Z" fill="#FF6666"/>
  <path d="M15.4196 20.5692L18.0789 17.267C18.1116 17.2265 18.1308 17.1769 18.1339 17.125C18.1371 17.0731 18.1239 17.0215 18.0964 16.9774L16.8293 14.9592C16.81 14.9289 16.7843 14.903 16.7541 14.8835C16.7239 14.8639 16.6898 14.8511 16.6542 14.846C16.6186 14.8408 16.5822 14.8434 16.5477 14.8535C16.5132 14.8637 16.4812 14.8812 16.4541 14.9048L12.6509 18.2821L15.0538 20.5961C15.079 20.6196 15.1088 20.6376 15.1412 20.649C15.1737 20.6604 15.2082 20.665 15.2426 20.6625C15.2769 20.66 15.3104 20.6504 15.3408 20.6343C15.3713 20.6183 15.3981 20.5961 15.4196 20.5692ZM9.83781 20.516L7.25109 17.3045C7.20974 17.2532 7.18566 17.1901 7.18229 17.1243C7.17892 17.0585 7.19644 16.9933 7.23233 16.938L8.45939 15.0455C8.48399 15.0079 8.51643 14.976 8.55448 14.952C8.59254 14.928 8.63531 14.9125 8.6799 14.9066C8.72448 14.9007 8.76982 14.9044 8.81283 14.9176C8.85583 14.9308 8.89548 14.9531 8.92908 14.983L12.6522 18.2833L10.2981 20.5454C10.2668 20.5755 10.2296 20.5987 10.1889 20.6136C10.1482 20.6285 10.1048 20.6348 10.0615 20.6321C10.0182 20.6293 9.97595 20.6175 9.93745 20.5976C9.89894 20.5776 9.865 20.5498 9.83781 20.516Z" fill="#4EB7FF"/>
  <path d="M15.5186 6.0846L7.86353 6.00329V2.52098C7.86353 1.52907 8.72097 0.468994 9.77855 0.468994H17.1203C17.2032 0.468994 17.2828 0.50194 17.3414 0.560584C17.4001 0.619228 17.433 0.698767 17.433 0.781702V4.28841C17.433 5.28031 16.5762 6.0846 15.5186 6.0846Z" fill="#676E87"/>
  <path d="M17.1203 0.468994H15.2441C15.327 0.468994 15.4065 0.50194 15.4652 0.560584C15.5238 0.619228 15.5568 0.698767 15.5568 0.781702V4.28841C15.5568 5.27969 14.6999 6.08397 13.6424 6.08397L7.86353 7.43925V7.87704L15.5186 6.0821C16.5762 6.0821 17.433 5.27781 17.433 4.28653V0.781702C17.433 0.698767 17.4001 0.619228 17.3414 0.560584C17.2828 0.50194 17.2032 0.468994 17.1203 0.468994Z" fill="#595F74"/>
  <path d="M8.80143 5.14648H16.494C16.7428 5.14648 16.9815 5.24532 17.1574 5.42125C17.3333 5.59719 17.4322 5.8358 17.4322 6.08461V10.0022C17.4322 11.2713 16.928 12.4884 16.0307 13.3858C15.1333 14.2831 13.9162 14.7873 12.6471 14.7873C11.378 14.7873 10.1609 14.2831 9.26357 13.3858C8.3662 12.4884 7.86206 11.2713 7.86206 10.0022V6.08461C7.86206 5.96141 7.88633 5.83942 7.93347 5.7256C7.98062 5.61178 8.04972 5.50837 8.13683 5.42125C8.22394 5.33414 8.32736 5.26504 8.44118 5.21789C8.555 5.17075 8.67699 5.14648 8.80018 5.14648H8.80143Z" fill="#FFCD85"/>
  <path d="M16.4946 5.14648H14.6184C14.8672 5.14648 15.1058 5.24532 15.2817 5.42125C15.4577 5.59719 15.5565 5.8358 15.5565 6.08461V10.0016C15.5559 11.1074 15.1725 12.1789 14.4713 13.034C13.7701 13.8891 12.7945 14.475 11.7102 14.6922C12.0191 14.7536 12.3333 14.7846 12.6483 14.7848C13.9173 14.7846 15.1342 14.2804 16.0315 13.383C16.9287 12.4857 17.4328 11.2687 17.4328 9.99971V6.08461C17.4328 5.8358 17.3339 5.59719 17.158 5.42125C16.9821 5.24532 16.7434 5.14648 16.4946 5.14648Z" fill="#FFC166"/>
  <path d="M17.4329 6.66504H18.2734C18.4876 6.66504 18.6929 6.75011 18.8443 6.90152C18.9958 7.05294 19.0808 7.25831 19.0808 7.47245V8.72891C19.0808 8.94305 18.9958 9.14842 18.8443 9.29984C18.6929 9.45125 18.4876 9.53632 18.2734 9.53632H17.4329V6.66504Z" fill="#FFCD85"/>
  <path d="M7.8633 9.53937H7.02274C6.8086 9.53937 6.60324 9.45431 6.45182 9.30289C6.3004 9.15147 6.21533 8.9461 6.21533 8.73196V7.4755C6.21533 7.26136 6.3004 7.05599 6.45182 6.90458C6.60324 6.75316 6.8086 6.66809 7.02274 6.66809H7.8633V9.53937Z" fill="#FFC166"/>
  <path d="M30.474 15.873H18.3653C17.7816 15.873 17.3083 16.3463 17.3083 16.93V25.5276C17.3083 26.1113 17.7816 26.5845 18.3653 26.5845H30.474C31.0577 26.5845 31.5309 26.1113 31.5309 25.5276V16.93C31.5309 16.3463 31.0577 15.873 30.474 15.873Z" fill="#FFC166"/>
  <path d="M30.4739 15.873H28.5977C28.878 15.873 29.1468 15.9844 29.345 16.1826C29.5433 16.3808 29.6546 16.6497 29.6546 16.93V25.5276C29.6547 25.6664 29.6274 25.8039 29.5743 25.9322C29.5212 26.0604 29.4434 26.177 29.3452 26.2751C29.2471 26.3733 29.1305 26.4512 29.0022 26.5042C28.874 26.5573 28.7365 26.5846 28.5977 26.5845H30.4739C30.6127 26.5846 30.7502 26.5573 30.8785 26.5042C31.0067 26.4512 31.1233 26.3733 31.2215 26.2751C31.3196 26.177 31.3975 26.0604 31.4506 25.9322C31.5037 25.8039 31.5309 25.6664 31.5309 25.5276V16.93C31.5309 16.6497 31.4195 16.3808 31.2213 16.1826C31.0231 15.9844 30.7542 15.873 30.4739 15.873Z" fill="#FFB74E"/>
  <path d="M31.5309 19.0877L25.1204 22.2867C24.8998 22.3827 24.6618 22.4323 24.4212 22.4323C24.1806 22.4323 23.9426 22.3827 23.722 22.2867L17.3083 19.0877V16.93C17.3083 16.7911 17.3357 16.6537 17.3889 16.5254C17.442 16.3971 17.5199 16.2806 17.6181 16.1824C17.7164 16.0842 17.8329 16.0064 17.9613 15.9533C18.0896 15.9002 18.2271 15.873 18.3659 15.873H30.474C30.7543 15.873 31.0231 15.9844 31.2213 16.1826C31.4196 16.3808 31.5309 16.6497 31.5309 16.93V19.0877Z" fill="#FFAE36"/>
  <path d="M31.2213 16.1826C31.1733 16.1348 31.121 16.0917 31.0649 16.0538C30.8905 15.9357 30.6846 15.8727 30.4739 15.873H28.5977C28.878 15.873 29.1468 15.9844 29.345 16.1826C29.5433 16.3808 29.6546 16.6497 29.6546 16.93V20.0233L31.5309 19.0852V16.9275C31.5307 16.7891 31.5033 16.6521 31.4502 16.5243C31.3971 16.3964 31.3193 16.2804 31.2213 16.1826Z" fill="#FFA41F"/>
  <path d="M25.4199 20.9939H23.4192C23.1775 20.9939 22.9814 21.1899 22.9814 21.4317V23.4324C22.9814 23.6742 23.1775 23.8702 23.4192 23.8702H25.4199C25.6617 23.8702 25.8577 23.6742 25.8577 23.4324V21.4317C25.8577 21.1899 25.6617 20.9939 25.4199 20.9939Z" fill="#676E87"/>
  <path d="M25.4201 20.9939H24.4819C24.598 20.9939 24.7094 21.04 24.7915 21.1221C24.8736 21.2042 24.9197 21.3156 24.9197 21.4317V23.433C24.9197 23.5491 24.8736 23.6605 24.7915 23.7426C24.7094 23.8247 24.598 23.8708 24.4819 23.8708H25.4201C25.5362 23.8708 25.6475 23.8247 25.7296 23.7426C25.8117 23.6605 25.8578 23.5491 25.8578 23.433V21.4317C25.8578 21.3156 25.8117 21.2042 25.7296 21.1221C25.6475 21.04 25.5362 20.9939 25.4201 20.9939Z" fill="#595F74"/>
  <path d="M14.7329 8.36618C14.7945 8.36618 14.8555 8.35405 14.9124 8.33047C14.9693 8.3069 15.021 8.27235 15.0646 8.2288C15.1081 8.18524 15.1427 8.13353 15.1663 8.07662C15.1898 8.01971 15.202 7.95872 15.202 7.89712V7.29047C15.202 7.16606 15.1526 7.04676 15.0646 6.95879C14.9766 6.87082 14.8573 6.8214 14.7329 6.8214C14.6085 6.8214 14.4892 6.87082 14.4012 6.95879C14.3133 7.04676 14.2638 7.16606 14.2638 7.29047V7.89587C14.2637 7.95757 14.2757 8.0187 14.2992 8.07576C14.3227 8.13281 14.3572 8.18466 14.4008 8.22835C14.4444 8.27204 14.4961 8.3067 14.5531 8.33035C14.6101 8.35401 14.6712 8.36618 14.7329 8.36618ZM30.474 15.404H28.5784V14.4759C28.5779 14.0418 28.4052 13.6257 28.0982 13.3189C27.7912 13.012 27.3751 12.8395 26.941 12.8392H21.8977C21.4637 12.8396 21.0477 13.0122 20.7409 13.3191C20.434 13.6259 20.2614 14.0419 20.261 14.4759V15.404H18.3659C18.1526 15.404 17.9416 15.4489 17.7468 15.5359L17.2283 14.7098C17.1312 14.5557 16.9793 14.4442 16.8032 14.3978C16.6271 14.3514 16.44 14.3734 16.2796 14.4596L15.9994 14.045C16.5939 13.5533 17.0727 12.9365 17.4015 12.2386C17.7304 11.5407 17.9012 10.7788 17.9019 10.0073H18.2734C18.6121 10.0069 18.9369 9.87209 19.1763 9.63237C19.4156 9.39265 19.55 9.06769 19.5499 8.72892V7.47184C19.5495 7.1334 19.4149 6.80891 19.1756 6.5696C18.9363 6.33029 18.6118 6.1957 18.2734 6.19536H17.9019V5.70191C17.9021 5.49948 17.842 5.30157 17.7293 5.13341C17.8427 4.86633 17.9014 4.57924 17.9019 4.2891V0.781769C17.9017 0.574482 17.8193 0.375732 17.6727 0.229158C17.5262 0.0825837 17.3274 0.000165631 17.1201 0H9.77837C8.41371 0 7.39429 1.33088 7.39429 2.52105V6.19724H7.02279C6.6844 6.19774 6.36001 6.33238 6.12073 6.57166C5.88146 6.81094 5.74681 7.13532 5.74632 7.47371V8.72892C5.74681 9.06731 5.88146 9.3917 6.12073 9.63098C6.36001 9.87025 6.6844 10.0049 7.02279 10.0054H7.39429C7.39533 10.7844 7.56986 11.5535 7.90522 12.2566C8.24058 12.9598 8.72834 13.5795 9.33307 14.0706L9.05476 14.4902C8.90615 14.4084 8.73621 14.3736 8.56738 14.3903C8.39855 14.4071 8.23877 14.4746 8.10913 14.5841L6.85268 15.6285C6.80637 15.6683 6.76443 15.713 6.72759 15.7617L4.0258 16.257L3.99828 16.2633C1.9563 16.7636 0.4134 18.4804 0.15823 20.5355C0.152601 20.5812 0.146973 20.6268 0.14322 20.6694L0 22.1228V24.7083C0.000661133 25.3298 0.24771 25.9256 0.686992 26.3653C1.12627 26.8049 1.72195 27.0524 2.34343 27.0536H18.0307C18.0706 27.0535 18.1104 27.0482 18.1489 27.038C18.2208 27.0483 18.2933 27.0535 18.3659 27.0536H30.474C30.8786 27.0533 31.2666 26.8924 31.5527 26.6063C31.8388 26.3202 31.9997 25.9322 32 25.5276V16.93C31.9995 16.5254 31.8386 16.1376 31.5525 15.8515C31.2664 15.5654 30.8786 15.4045 30.474 15.404ZM17.9031 7.13536H18.2746C18.3191 7.13536 18.3631 7.14411 18.4041 7.16112C18.4452 7.17812 18.4825 7.20304 18.5139 7.23446C18.5453 7.26588 18.5702 7.30318 18.5872 7.34423C18.6042 7.38528 18.613 7.42928 18.613 7.47371V8.72892C18.613 8.77335 18.6042 8.81735 18.5872 8.8584C18.5702 8.89945 18.5453 8.93675 18.5139 8.96817C18.4825 8.99959 18.4452 9.02451 18.4041 9.04151C18.3631 9.05852 18.3191 9.06727 18.2746 9.06727H17.9031V7.13536ZM7.39616 9.06915H7.02466C6.93498 9.06898 6.84902 9.03328 6.7856 8.96986C6.72218 8.90645 6.68648 8.82048 6.68632 8.7308V7.47371C6.68648 7.38403 6.72218 7.29806 6.7856 7.23465C6.84902 7.17123 6.93498 7.13553 7.02466 7.13536H7.39616V9.06915ZM8.33428 2.52105C8.33428 1.8037 8.97909 0.938123 9.78024 0.938123H16.9638V4.28847C16.9643 4.42069 16.9432 4.55211 16.9012 4.67748H8.48876C8.43641 4.67784 8.38415 4.68202 8.33241 4.68999L8.33428 2.52105ZM8.33428 10.0016V5.77196C8.33428 5.73049 8.35076 5.69072 8.38008 5.6614C8.4094 5.63208 8.44917 5.6156 8.49064 5.6156H16.8768C16.8882 5.61552 16.8995 5.61769 16.9101 5.62199C16.9206 5.62629 16.9302 5.63264 16.9383 5.64066C16.9463 5.64868 16.9528 5.65823 16.9571 5.66874C16.9615 5.67925 16.9638 5.69052 16.9638 5.70191V10.0016C16.9624 11.1457 16.5074 12.2426 15.6984 13.0516C14.8894 13.8606 13.7925 14.3157 12.6484 14.317C11.5042 14.3157 10.4073 13.8606 9.59822 13.0516C8.78912 12.2427 8.3339 11.1458 8.33241 10.0016H8.33428ZM15.5616 15.0675L12.6497 17.6523L9.77274 15.1038L10.1073 14.5997C10.8909 15.0339 11.7728 15.2597 12.6686 15.2557C13.5644 15.2516 14.4442 15.0178 15.2239 14.5766L15.5616 15.0675ZM8.64762 15.3583L11.9623 18.2978L10.1261 20.0652L7.51937 16.2964L8.64762 15.3583ZM5.1947 26.1155V22.7539C5.1947 22.6295 5.14528 22.5101 5.05731 22.4222C4.96935 22.3342 4.85004 22.2848 4.72564 22.2848C4.60124 22.2848 4.48193 22.3342 4.39396 22.4222C4.306 22.5101 4.25658 22.6295 4.25658 22.7539V26.1155H2.34343C1.97032 26.1151 1.61259 25.9668 1.34877 25.7029C1.08494 25.4391 0.936578 25.0814 0.936247 24.7083V22.1904L1.07509 20.7557C1.07509 20.7188 1.08259 20.6825 1.08697 20.6462C1.29211 18.9857 2.54669 17.5917 4.20654 17.1777L6.67756 16.7242C6.68506 16.7355 6.69132 16.7467 6.69882 16.758L9.415 20.6862C9.48465 20.7868 9.57529 20.8712 9.68067 20.9333C9.78605 20.9955 9.90367 21.0341 10.0254 21.0465C10.0538 21.049 10.0819 21.0502 10.1098 21.0502C10.3282 21.0506 10.5381 20.966 10.6952 20.8144L12.6503 18.9338L14.726 20.9308C14.8604 21.0601 15.0398 21.1323 15.2264 21.1322H15.2714C15.371 21.1259 15.4682 21.099 15.5568 21.0531C15.6454 21.0072 15.7235 20.9434 15.7861 20.8657L16.8399 19.5567V25.5295C16.8399 25.7313 16.8801 25.9312 16.9581 26.1173L5.1947 26.1155ZM16.8387 16.93V18.0595L15.2045 20.089L13.3395 18.2978L16.4784 15.5116L16.4847 15.5059L16.5698 15.4302L17.0394 16.1807C16.9085 16.4088 16.8393 16.667 16.8387 16.93ZM21.1991 14.4759C21.1992 14.2906 21.2729 14.113 21.4039 13.9821C21.5348 13.8511 21.7124 13.7774 21.8977 13.7773H26.941C27.1263 13.7773 27.3041 13.8509 27.4352 13.9818C27.5663 14.1128 27.6401 14.2905 27.6402 14.4759V15.404H21.1985L21.1991 14.4759ZM31.0619 25.5276C31.0619 25.6835 30.9999 25.833 30.8897 25.9433C30.7794 26.0535 30.6299 26.1155 30.474 26.1155H18.3659C18.2101 26.1153 18.0606 26.0533 17.9504 25.9431C17.8402 25.8329 17.7782 25.6834 17.7781 25.5276V19.8457L22.5137 22.2079V23.4331C22.514 23.6735 22.6097 23.9039 22.7797 24.0739C22.9497 24.2439 23.1801 24.3396 23.4206 24.3399H25.4219C25.6623 24.3396 25.8928 24.2439 26.0628 24.0739C26.2328 23.9039 26.3284 23.6735 26.3287 23.4331V22.2079L31.0619 19.8457V25.5276ZM23.4506 23.4012V21.4624H25.3894V23.4012H23.4506ZM31.0619 18.7981L26.29 21.1784C26.2349 20.9903 26.1204 20.825 25.9636 20.7073C25.8067 20.5896 25.6161 20.5258 25.42 20.5255H23.4187C23.2225 20.5258 23.0318 20.5896 22.8748 20.7072C22.7179 20.8249 22.6033 20.9902 22.5481 21.1784L17.7768 18.7981V16.93C17.777 16.7741 17.839 16.6247 17.9492 16.5145C18.0594 16.4043 18.2088 16.3423 18.3647 16.3421H30.474C30.6299 16.3423 30.7793 16.4043 30.8895 16.5145C30.9997 16.6247 31.0617 16.7741 31.0619 16.93V18.7981ZM12.6484 20.6431C12.5556 20.6431 12.4649 20.6706 12.3878 20.7221C12.3107 20.7737 12.2505 20.8469 12.215 20.9326C12.1795 21.0184 12.1703 21.1127 12.1884 21.2037C12.2064 21.2946 12.2511 21.3782 12.3167 21.4438C12.3823 21.5094 12.4659 21.5541 12.5569 21.5722C12.6479 21.5903 12.7422 21.581 12.8279 21.5455C12.9136 21.51 12.9869 21.4499 13.0384 21.3727C13.09 21.2956 13.1175 21.2049 13.1175 21.1121C13.1175 20.9877 13.068 20.8684 12.9801 20.7805C12.8921 20.6925 12.7728 20.6431 12.6484 20.6431ZM12.6484 24.3956C12.5556 24.3956 12.4649 24.4231 12.3878 24.4746C12.3107 24.5262 12.2505 24.5994 12.215 24.6851C12.1795 24.7708 12.1703 24.8652 12.1884 24.9561C12.2064 25.0471 12.2511 25.1307 12.3167 25.1963C12.3823 25.2619 12.4659 25.3066 12.5569 25.3247C12.6479 25.3428 12.7422 25.3335 12.8279 25.298C12.9136 25.2625 12.9869 25.2024 13.0384 25.1252C13.09 25.0481 13.1175 24.9574 13.1175 24.8646C13.1175 24.7402 13.068 24.6209 12.9801 24.533C12.8921 24.445 12.7728 24.3956 12.6484 24.3956ZM12.6484 22.5193C12.5556 22.5193 12.4649 22.5468 12.3878 22.5984C12.3107 22.6499 12.2505 22.7232 12.215 22.8089C12.1795 22.8946 12.1703 22.9889 12.1884 23.0799C12.2064 23.1709 12.2511 23.2545 12.3167 23.3201C12.3823 23.3857 12.4659 23.4303 12.5569 23.4484C12.6479 23.4665 12.7422 23.4572 12.8279 23.4217C12.9136 23.3862 12.9869 23.3261 13.0384 23.249C13.09 23.1719 13.1175 23.0812 13.1175 22.9884C13.1175 22.864 13.068 22.7447 12.9801 22.6567C12.8921 22.5687 12.7728 22.5193 12.6484 22.5193ZM10.5633 8.36618C10.6877 8.36618 10.807 8.31676 10.8949 8.2288C10.9829 8.14083 11.0323 8.02152 11.0323 7.89712V7.29047C11.0323 7.16606 10.9829 7.04676 10.8949 6.95879C10.807 6.87082 10.6877 6.8214 10.5633 6.8214C10.4389 6.8214 10.3196 6.87082 10.2316 6.95879C10.1436 7.04676 10.0942 7.16606 10.0942 7.29047V7.89587C10.094 7.95757 10.1061 8.0187 10.1295 8.07576C10.153 8.13281 10.1876 8.18466 10.2311 8.22835C10.2747 8.27204 10.3265 8.3067 10.3835 8.33035C10.4405 8.35401 10.5016 8.36618 10.5633 8.36618ZM11.2512 11.8623C11.6543 12.1289 12.1251 12.2752 12.6084 12.2838H12.6534C13.1519 12.2814 13.6391 12.1347 14.0562 11.8616C14.1587 11.7925 14.2298 11.6858 14.254 11.5646C14.2782 11.4434 14.2536 11.3175 14.1856 11.2144C14.1175 11.1112 14.0115 11.0391 13.8905 11.0136C13.7696 10.9882 13.6435 11.0116 13.5396 11.0786C13.277 11.2529 12.9689 11.3459 12.6537 11.3459C12.3385 11.3459 12.0304 11.2529 11.7678 11.0786C11.664 11.0116 11.5379 10.9882 11.4169 11.0136C11.296 11.0391 11.1899 11.1112 11.1219 11.2144C11.0538 11.3175 11.0292 11.4434 11.0534 11.5646C11.0776 11.6858 11.1487 11.7925 11.2512 11.8616V11.8623Z" fill="#272A33"/>
</svg>
