<svg width="24" height="24" viewBox="0 0 24 24" fill="none" xmlns="http://www.w3.org/2000/svg">
<g clip-path="url(#clip0_29_2951)">
<path d="M17.6926 21.3261C16.5211 21.491 14.9937 21.491 12.9445 21.491H11.0453C7.01702 21.491 5.00186 21.491 3.75038 20.2396C2.4989 18.9881 2.4989 16.9729 2.4989 12.9446V11.0454C2.4989 7.01708 2.4989 5.00192 3.75038 3.75044C5.00186 2.49896 7.01702 2.49896 11.0453 2.49896H12.9445C16.9729 2.49896 18.988 2.49896 20.2395 3.75044C21.491 5.00192 21.491 7.01708 21.491 11.0454V12.9446C21.491 14.1521 21.491 15.1787 21.457 16.0583C21.43 16.763 21.417 17.1159 21.1501 17.2478C20.8832 17.3788 20.5844 17.1678 19.9876 16.745L18.6422 15.7934" stroke="white" stroke-width="1.49938" stroke-linecap="round" stroke-linejoin="round"/>
<path d="M14.9388 12.3898C14.7629 13.0166 13.9272 13.4594 12.2579 14.344C10.6436 15.1997 9.83694 15.6285 9.18621 15.4566C8.91999 15.3869 8.67537 15.2518 8.4745 15.0637C7.9967 14.6139 7.9967 13.7403 7.9967 11.995C7.9967 10.2497 7.9967 9.3761 8.4745 8.92629C8.67242 8.74036 8.91732 8.60542 9.18621 8.53445C9.83594 8.36152 10.6436 8.79034 12.2579 9.64599C13.9272 10.5316 14.7629 10.9744 14.9388 11.6002C15.0118 11.8591 15.0118 12.131 14.9388 12.3898Z" stroke="white" stroke-width="1.49938" stroke-linejoin="round"/>
</g>
<defs>
<clipPath id="clip0_29_2951">
<rect width="23.99" height="23.99" fill="white"/>
</clipPath>
</defs>
</svg>
