<svg width="24" height="24" viewBox="0 0 24 24" fill="none" xmlns="http://www.w3.org/2000/svg">
<g clip-path="url(#clip0_29_2937)">
<g clip-path="url(#clip1_29_2937)">
<path d="M17.6926 21.3261C16.5211 21.491 14.9937 21.491 12.9446 21.491H11.0454C7.01707 21.491 5.00191 21.491 3.75043 20.2396C2.49895 18.9881 2.49895 16.9729 2.49895 12.9446V11.0454C2.49895 7.01708 2.49895 5.00192 3.75043 3.75044C5.00191 2.49896 7.01707 2.49896 11.0454 2.49896H12.9446C16.9729 2.49896 18.9881 2.49896 20.2396 3.75044C21.491 5.00192 21.491 7.01708 21.491 11.0454V12.9446C21.491 14.1521 21.491 15.1787 21.4571 16.0583C21.4301 16.763 21.4171 17.1159 21.1502 17.2478C20.8833 17.3788 20.5844 17.1678 19.9877 16.745L18.6422 15.7934" stroke="#0A3D2A" stroke-width="1.49938" stroke-linecap="round" stroke-linejoin="round"/>
<path d="M14.9388 12.3898C14.7628 13.0166 13.9272 13.4594 12.2579 14.344C10.6436 15.1997 9.8369 15.6285 9.18617 15.4566C8.91995 15.3869 8.67533 15.2518 8.47447 15.0637C7.99667 14.6139 7.99667 13.7403 7.99667 11.995C7.99667 10.2497 7.99667 9.3761 8.47447 8.92629C8.67238 8.74036 8.91728 8.60542 9.18617 8.53445C9.8359 8.36152 10.6436 8.79034 12.2579 9.64599C13.9272 10.5316 14.7628 10.9744 14.9388 11.6002C15.0117 11.8591 15.0117 12.131 14.9388 12.3898Z" stroke="#0A3D2A" stroke-width="1.49938" stroke-linejoin="round"/>
</g>
</g>
<defs>
<clipPath id="clip0_29_2937">
<rect width="23.99" height="23.99" fill="white"/>
</clipPath>
<clipPath id="clip1_29_2937">
<rect width="23.99" height="23.99" fill="white"/>
</clipPath>
</defs>
</svg>
